<svg xmlns="http://www.w3.org/2000/svg" width="694.698" height="709.019" viewBox="0 0 694.698 709.019"><g transform="translate(-61.916 -0.449)"><path d="M331.335,666.887c-10.974-3.485-22.148-6.178-33.015-10.038a297.8,297.8,0,0,1-30.536-12.877,311.367,311.367,0,0,1-57.343-35.977c-35.9-28.484-65.192-64.532-86.958-104.793-12.4-22.931-21.579-46.952-30.477-71.384-1.583-4.349-8.089-2.682-7.006,1.931,10.673,45.445,34.339,89.1,62.8,125.789C177.45,596.48,213.73,627.532,255.162,649.3a300.846,300.846,0,0,0,35.766,15.868c12.224,4.513,24.991,8.884,37.94,10.664C334.624,676.628,337.2,668.751,331.335,666.887Z" fill="#c1e2fd"/><path d="M696.977,408.629c6.858,94.879-43.753,189.981-127.585,237.065-98.358,55.245-228.576,28.828-322.83-22.839C52.485,516.469,39.513,186.752,284.607,137.578a317.606,317.606,0,0,1,55.245-6c47.02-1.067,91.738,7.9,137.319,17.851,43.817,9.567,90.1,16.729,127.549,43.279C664.892,235.372,691.931,338.831,696.977,408.629Z" fill="#f3f3f3"/><path d="M161.456,178.574c-8.527,9.292-19.868,17.434-27.574,27.237-4.02,5.113-1.852,8.772-.024,15.328a203.984,203.984,0,0,0,6.689,19.948c1.8,4.569,4.557,9.71,9.422,10.376a14.418,14.418,0,0,0,4.1-.226l87.378-13.252c10.832-1.643,21.678-3.281,32.4-5.572,4.879-1.043,10.745-1.708,15.235-3.953,2.94-1.47,4.414-3.831,7.933-4.183a224.045,224.045,0,0,0-6.73-43.3c-2.6-9.891-11.272-12.868-20.611-15.775-12.776-5.694-26.2-9.55-39.066-14.97-11.9-5.012-23.447-10.39-34.211-17.594C199.082,134.433,165.21,174.482,161.456,178.574Z"/><path d="M288.34,230.834q-19.012,5.481-38.476,9.185c-9.718,1.849-19.5,3.36-29.273,4.87l-66.675,10.3c-1.414-28.484-14.651-55.115-18.435-83.381q34.311-6.552,68.577-13.342c22.386-4.4,45.71-11.226,68.4-13.131C277.382,144.944,293.627,229.31,288.34,230.834Z" fill="#03be80"/><path d="M290.118,185.994a2.2,2.2,0,0,1,.673.369,4.487,4.487,0,0,1,1.246,2.727c3.059,15.2,4.5,30.593,6.411,46.014,1.319,10.628,5.964,20.572,6.573,31.447-11.79,4.138-25.3,5.59-37.649,7.819q-20.906,3.774-41.909,6.972c-23.071,3.559-49.466,11.3-72.445,10.776-3.265-10.067-25.934-77.327-18.023-80.826,3.8-1.681,17.133,3.525,21.389,4.42q11.393,2.4,22.766,4.879c15.19,3.316,29.469,9.207,45.189,10.676a8.157,8.157,0,0,0,3.078-.117,8.907,8.907,0,0,0,3.052-1.963c6.251-5.274,13.678-8.749,20.07-13.59q11.247-8.519,22.718-16.845c5.036-3.656,9.143-8.477,13.886-12.147A3.32,3.32,0,0,1,290.118,185.994Z" fill="#707070"/><path d="M305.742,262.079q-39.07-17.408-79.6-31.185a2.71,2.71,0,0,0-3.347,1.314,2.859,2.859,0,0,0-1.075.552l-69.275,55.351c-2.8,2.24.744,6.543,3.554,4.3l69.275-55.351a3.088,3.088,0,0,0,.428-.417q39.69,13.569,78.037,30.644C307.029,268.75,309.011,263.535,305.742,262.079Z"/><path d="M178.814,180.4c-7.694-.494-16.4,1.775-23.947,3.191a.768.768,0,0,0,.247,1.514c7.654-.7,16.632-.916,23.9-3.494A.641.641,0,0,0,178.814,180.4Z" fill="#fff"/><path d="M261.479,175.646c-9.023.436-18.177,3.088-27.032,4.827q-13.476,2.647-26.954,5.295-12.94,2.532-25.882,5.051c-8.614,1.692-17.571,2.872-25.908,5.667-.54.181-.215.923.272.892,9.072-.572,18.142-2.972,27.051-4.71,8.987-1.754,17.968-3.536,26.955-5.291q12.94-2.526,25.883-5.047c8.58-1.673,17.7-2.653,25.958-5.561C262.5,176.529,262.089,175.617,261.479,175.646Z" fill="#fff"/><path d="M268.644,191.659c-17.354,3.328-34.657,6.92-51.971,10.442-17.27,3.512-34.857,6.366-51.908,10.832a.976.976,0,0,0,.315,1.926c17.437-2.523,34.738-6.746,52.005-10.235,17.321-3.5,34.659-6.932,51.941-10.626C270.509,193.681,270.149,191.37,268.644,191.659Z" fill="#fff"/><path d="M244.829,212.031c-7.835,1.594-15.624,3.451-23.422,5.218-7.017,1.59-14.715,2.545-21.322,5.447-.605.265-.254,1.04.313,1.024,7.471-.214,15.179-2.754,22.457-4.366,7.452-1.651,14.933-3.222,22.347-5.036C246.633,213.968,246.306,211.73,244.829,212.031Z" fill="#fff"/><path d="M589.337,484.978c-16.828,24.386-53.77,35.83-79.945,46.752-5.967,2.49-13.893,2.3-17.071,8.084s-3.127,13.908-2.208,20.222c1.138,7.813,4.1,15.24,7.344,22.436-8.3-.191-15.14-6.126-22.4-10.135a210.977,210.977,0,0,1-19.921-11.922c-6.018-4.244-10.943-9.8-16.989-13.958-2.717-1.868-7.005-.611-10.848-.2-9.346,1-18.7,1.935-28.071,2.7a506.408,506.408,0,0,1-55.345,1.832c-37.29-1.061-74.232-8.338-107.915-24.753-27.709-13.5-62.417-42.794-71.621-73.13-2.129-7.018-2.961-14.355-3.685-21.662-7.333-74,50.948-141.648,119.138-162.477,27.777-8.485,57.156-12.559,86.158-13.256,7.207-.173,14.248-.5,21.187-.815,67.224-3.007,129.041,9.283,184.135,50.061,25.043,18.536,43.217,46.968,47.744,77.964C623.734,415.011,607.654,458.435,589.337,484.978Z" fill="#0073d1"/><path d="M602.337,474.978c-16.828,24.386-53.77,35.83-79.945,46.752-8.783,3.665-22.823,4.974-27.253,14.062-6.088,12.492-5.338,33.44,2.556,45.208-24.714-6.306-34.849-25.916-47.226-45.862-69.467,7.814-136.307,12.668-201.506-19.1-27.709-13.5-62.417-42.794-71.621-73.13-2.129-7.018-2.961-14.355-3.685-21.662-7.333-74,50.948-141.648,119.138-162.477,27.777-8.485,57.156-12.559,86.158-13.256,7.207-.173,14.248-.5,21.187-.815,67.224-3.007,129.041,9.283,184.135,50.061,25.043,18.536,43.217,46.968,47.744,77.964C636.734,405.011,620.654,448.435,602.337,474.978Z" fill="#008cff"/><path d="M186.158,587.507q-.423-.834-.845-1.669" fill="#fbffea"/><path d="M264.061,619.4c6.5,51.006-57.021,100.306-106.474,80.885-36.352-14.277-55.378-56.808-43.463-93.621,13.4-41.389,65.739-60.985,104.964-44.624C243.1,572.055,260.72,593.184,264.061,619.4Z" fill="#0073d1"/><path d="M267.061,613.4c6.5,51.006-57.021,100.306-106.474,80.885-36.352-14.277-55.378-56.808-43.463-93.621,13.4-41.389,65.739-60.985,104.964-44.624C246.1,566.055,263.72,587.184,267.061,613.4Z" fill="#008cff"/><path d="M249.059,643.508c-17.085,34.418-72.751,61.849-104.874,29.455-17.988-18.14-23.166-47.054-15.919-71.133,1.85-6.148,4.486-12.146,8.691-16.864,4.754-5.332,11.2-8.712,17.54-11.927,12.541-6.363,25.449-12.577,39.44-14.493s29.441,1.058,40.031,11.078c6.209,5.875,10.321,13.7,13.486,21.685C254.12,608.122,256.892,627.727,249.059,643.508Z" fill="#fff"/><path d="M162,577.257a1.155,1.155,0,0,0-1.8.911c.1,3.236,2.469,6.851,4,9.632a2.475,2.475,0,0,0,2.54,1.295,1.92,1.92,0,0,0,1.467-1.012,2.349,2.349,0,0,0,.082-2.352C166.7,583.04,164.688,578.929,162,577.257Z" fill="#707070"/><path d="M210.789,661.718c-.9-1.68-1.631-3.908-3.578-4.437a1.461,1.461,0,0,0-1.865.944c-.555,2.1,1,3.9,2.1,5.643,1.122,1.794,2.279,3.831,3.981,5.094.939.7,1.947-.275,1.832-1.263C213.015,665.615,211.774,663.547,210.789,661.718Z" fill="#707070"/><path d="M150.031,642.289c-2.339-.276-4.23,1.565-6.107,2.753-2.093,1.327-4.394,2.588-6.049,4.476-.717.82-.172,2.484,1.1,2.163,2.578-.653,4.836-2.177,7.1-3.53,1.943-1.164,4.235-1.963,5.075-4.211A1.3,1.3,0,0,0,150.031,642.289Z" fill="#707070"/><path d="M233.621,595.73c-2.911.258-7,3.2-7.628,6.206a1.134,1.134,0,0,0,1.529,1.352,26.212,26.212,0,0,0,3.443-2.316c1.221-.776,2.61-1.185,3.825-1.93A1.794,1.794,0,0,0,233.621,595.73Z" fill="#707070"/><path d="M202.466,613.717c-3.492.978-6.517,3.328-9.634,5.149-1.431.836-2.857,1.67-4.265,2.533a5.447,5.447,0,0,0-3.39-1.78c-.052-.007-.1-.006-.158-.012-.085-.005-.17-.015-.254-.015a5.861,5.861,0,0,0-1.6.105c-1.468-3.186-3.219-6.254-4.861-9.358-2.223-4.2-3.92-9.459-7.879-12.2a1.191,1.191,0,0,0-1.859.941c.232,4.836,3.672,8.973,6.065,13.114,1.812,3.137,3.53,6.371,5.523,9.4-2.912,3.913,1.623,10.935,6.707,8.4a5.764,5.764,0,0,0,3.073-5.278c1.79-.92,3.552-1.895,5.322-2.86,2.945-1.607,6.259-2.867,8.716-5.18C205.1,615.622,204.1,613.259,202.466,613.717Z" fill="#707070"/><path d="M139.418,623.611c-.848-.845-1.984-.681-3.055-.559a8.8,8.8,0,0,0-3.526.761.954.954,0,0,0,.154,1.711,8.593,8.593,0,0,0,3.525.151c1.091-.067,2.344-.046,3-1.053A.861.861,0,0,0,139.418,623.611Z" fill="#707070"/><path d="M142.852,602.381a7.727,7.727,0,0,0-3.2-1.233c-.692-.106-1,.95-.4,1.308a14,14,0,0,1,2.435,1.8c.665.629,1.314,1.484,2.293,1.347a.71.71,0,0,0,.545-.495C144.9,603.955,143.7,602.949,142.852,602.381Z" fill="#707070"/><path d="M162.556,660.982c-.948.724-1.244,2.277-1.56,3.4a16.568,16.568,0,0,0-.757,3.85.943.943,0,0,0,1.708.6,16.143,16.143,0,0,0,1.514-3.585c.364-1.1.982-2.538.616-3.726A.942.942,0,0,0,162.556,660.982Z" fill="#707070"/><path d="M185.772,665.333a8.932,8.932,0,0,0-.371,4.352,9.968,9.968,0,0,0,.83,4.109.887.887,0,0,0,1.632-.1,10.094,10.094,0,0,0,.44-4.332,8.933,8.933,0,0,0-.795-4.135A.944.944,0,0,0,185.772,665.333Z" fill="#707070"/><path d="M231.52,641.917a6.951,6.951,0,0,0-3.094-.364c-.94.074-1,1.682-.078,1.9a8.372,8.372,0,0,1,2.575,1.236c.794.5,2.249,1.1,2.63-.176C233.919,643.291,232.471,642.294,231.52,641.917Z" fill="#707070"/><path d="M242.219,619.016a12.937,12.937,0,0,0-3.4.759c-.947.3-2.031.6-2.364,1.64a.979.979,0,0,0,.211.944c.792.782,1.8.616,2.808.491a12.169,12.169,0,0,0,3.406-.78C244.235,621.471,243.794,618.956,242.219,619.016Z" fill="#707070"/><path d="M192.847,569.322c-.912,1.5-1.09,4.145.259,5.543.635.657,2.087.4,2-.692-.058-.739-.306-1.432-.428-2.165a9.171,9.171,0,0,1-.037-2.055A.991.991,0,0,0,192.847,569.322Z" fill="#707070"/><path d="M218.012,578.251a7.606,7.606,0,0,0-2.577,2.4c-.825,1-1.613,2.032-2.416,3.051-.743.942.782,2.241,1.621,1.415,1.6-1.575,4.109-3.343,4.82-5.58A1.072,1.072,0,0,0,218.012,578.251Z" fill="#707070"/><path d="M497.636,647.2c-57.974,19.077-124.3,34.525-180.4,1.576A117.177,117.177,0,0,1,287.3,623.978a96.972,96.972,0,0,1-14.148-21.454,39.146,39.146,0,0,0,12.221-8.111c7.019-7.086,8.893-18.824.991-26.146-6.816-6.316-16.527-2.916-19.927,5.091-3.7,8.714-1.694,18.19,1.705,26.639a52.9,52.9,0,0,1-5.784,1.918c-29.888,7.865-61.493-3.813-86.93-19.22a247.429,247.429,0,0,1-62.712-54.416C77.008,484.785,58.477,428.2,68.738,372.161c5-27.305,16.553-53.61,34.8-74.674,19.171-22.126,44.5-37.884,71.159-49.447,29.739-12.9,61.314-20.658,92.586-28.817,16.285-4.249,32.553-8.614,48.545-13.878,13.544-4.458,27.375-9.289,39.345-17.205.948-.627,1.886-1.3,2.818-2a95.519,95.519,0,0,0,43-2.779c21.948-6.73,39.231-23.744,40.121-47.612,1.035-27.747-17.2-52.486-26.127-77.656-6.7-18.88-7.214-38.626-3.1-57.646h-4.158q-.639,3.051-1.142,6.172a105.629,105.629,0,0,0,1.326,41.74c3.413,13.96,9.866,26.982,15.819,39.984,11.377,24.849,22.934,56.423-.539,78.344-15.682,14.646-39.651,18.68-60.87,15.914,16.186-14.495,27.245-38.851,12.493-58.069-13.245-17.254-40.31-19.349-54.225-1.91a37.057,37.057,0,0,0-7.683,28.841c1.906,11.305,10.042,20.292,19.728,25.865a73.855,73.855,0,0,0,20.148,7.777c-14.955,9.828-34.015,15.368-49.813,20.144-60.2,18.2-125.947,27.257-177.356,66.334-44.449,33.786-66.606,87.849-63.392,143.156,3.2,55.13,32.049,105.636,72.427,142.3,20.9,18.98,45.185,35.674,72.047,44.873,13.62,4.664,28.183,7.3,42.6,6.133a80.238,80.238,0,0,0,20.529-4.208,101.683,101.683,0,0,0,20.536,29.157c18.04,18.026,41.972,29.956,66.778,35.345,30.783,6.688,62.938,3.273,93.23-4.241a391.8,391.8,0,0,0,47.662-15.456C498.915,648.3,498.57,646.889,497.636,647.2ZM352.37,180.769c-13.033-3.153-26.8-9.684-33.064-22.252-5.776-11.589-2.649-26.289,6.143-35.51,9.386-9.844,23.934-11.053,35.711-4.865,13.233,6.952,18.825,21.416,15.319,35.731-2.927,11.95-9.971,20.941-19.084,27.958Q354.844,181.363,352.37,180.769ZM268.991,590.3c-1.082-5.245-1.112-11.565,1.446-16.406,3.132-5.929,10.418-6.785,14.567-1.338,8.788,11.54-2.607,20.925-13.534,26.007A52.314,52.314,0,0,1,268.991,590.3Z" fill="#707070"/><path d="M637.362,669.128c-22.68,13.57-48.46,22.24-74.12,23.71-29.22,1.68-58.3-5.98-82.5-26.37-.65-.55-1.29-1.1-1.93-1.67-1.15-1.03-2.28-2.11-3.34-3.23a25.138,25.138,0,0,1-6.31-10.31c-1.95-6.91.38-14.47,4.59-20.28s10.1-10.15,16.03-14.18c9.73-6.59,20.2-12.74,31.83-14.44,10.15-1.48,21.4,1.12,28.51,8.26a23.381,23.381,0,0,1,2.83,3.42,4.67,4.67,0,0,1,.3.47c1.92,2.92,3.26,6.21,5.24,9.1,5.4,7.85,15.24,11.85,24.77,11.95s18.79-3.26,27.24-7.65c20.34-10.57,37.07-27.22,50.3-45.94,5.98-8.46,11.46-19.49,6.76-28.73-2.48-4.89-7.23-7.97-11.66-11.33-.96-.73-1.91-1.47-2.82-2.25-.54-.46-1.05-.93-1.54-1.42-16.82-16.68-6.06-47.97,6.26-63.66,8.93-11.37,25.82-30.36,42.45-26.57a17.7,17.7,0,0,1,5.79,2.78,50.17,50.17,0,0,1,13.26,13.29c1.06,1.5,2.04,3.05,2.98,4.63,5.37,9.1,9.08,19.41,13.39,29.09C765.152,563.938,688.182,638.728,637.362,669.128Z" fill="#707070"/><path d="M645.971,653.46c-22.68,13.566-48.456,22.238-74.121,23.709-29.218,1.675-58.293-5.982-82.492-26.377-4.95-4.172-9.828-8.981-11.584-15.209a20,20,0,0,1-.349-8.933,38.769,38.769,0,0,0-3.675,4.328c-4.2,5.81-6.534,13.374-4.588,20.277,1.755,6.228,6.633,11.037,11.583,15.209,24.2,20.4,53.274,28.052,82.493,26.377,25.665-1.471,51.441-10.143,74.121-23.709,32.094-19.2,74.6-56.094,94.159-97.335C709.81,606.566,673.937,636.733,645.971,653.46Z"/><path d="M653.081,539.661c5.069,4.345,11.46,7.627,14.483,13.578,2.376,4.678,2.141,9.815.558,14.846.431-.6.868-1.185,1.292-1.784,5.982-8.463,11.456-19.494,6.762-28.734-3.022-5.951-9.414-9.234-14.482-13.578-13.485-11.558-11.82-31.392-5.181-47.7C644.407,492.937,634.748,523.948,653.081,539.661Z"/><path d="M722.282,468.708a87.16,87.16,0,0,0-15.81,5.22,84.851,84.851,0,0,0-45.11,46.3c-2.93,7.18-4.32,14.35-5.46,21.68-.96-.73-1.91-1.47-2.82-2.25-.54-.46-1.05-.93-1.54-1.42,2.3-18.55,13.05-37.46,25.34-49.75a90.874,90.874,0,0,1,27.82-19,115.19,115.19,0,0,1,14.6-5.41C720.362,465.578,721.342,467.128,722.282,468.708Z"/><path d="M553.252,614.508c-2.99.69-5.96,1.42-8.91,2.23a145.209,145.209,0,0,0-29.57,11.25,89.26,89.26,0,0,0-24.02,18.2c-5.27,5.75-8.71,11.98-11.94,18.61-1.15-1.03-2.28-2.11-3.34-3.23,5.97-15.15,20.97-27.96,33.97-35.58,10.04-5.88,21.03-9.98,32.2-13.13,2.81-.8,5.64-1.54,8.48-2.24a23.381,23.381,0,0,1,2.83,3.42A4.67,4.67,0,0,1,553.252,614.508Z"/><path d="M726.6,517.035c-.88-6.078-9.86-4.949-9.442,1.149a119.592,119.592,0,0,1-4.82,42.955c-2.015,6.894-4.132,13.4-7.689,19.672a85.576,85.576,0,0,1-5.984,9.454c-1.828,2.42-3.766,4.129-4.325,7.15a.768.768,0,0,0,1.031.815c5.667-1.465,10.833-9.963,13.978-14.557,4.342-6.344,8.894-13.235,11.757-20.383A92.43,92.43,0,0,0,726.6,517.035Z" fill="#fff"/><path d="M725.57,498.106a4.314,4.314,0,0,0-1.508-2.407l-1-.609a4.539,4.539,0,0,0-2.374-.354l-1.205-.008a4.683,4.683,0,0,0-3.978,5.87,4.739,4.739,0,0,0,6.311,3.23l1.1-.419A4.516,4.516,0,0,0,725.57,498.106Z" fill="#fff"/><path d="M614.66,629.386c-5.576,1.527-10.766,4.969-16.111,7.21a76.163,76.163,0,0,1-18.193,5.424c-12.107,1.792-23.8-.878-33.223-8.8-1.365-1.147-3.49.8-2.289,2.2,7.937,9.255,20.541,12.387,32.343,11.581a69.987,69.987,0,0,0,20.2-4.951c6.332-2.446,13.759-5.154,19.1-9.4A1.894,1.894,0,0,0,614.66,629.386Z" fill="#fff"/><path d="M634.854,618.4a1.708,1.708,0,0,0-1.353-1.07c-2.068-.266-3.179,1.622-4.325,3.067a13.283,13.283,0,0,0-2.894,4.893,1.639,1.639,0,0,0,2.217,1.752c1.709-.758,3.028-2.395,4.227-3.792C633.968,621.8,635.518,620.425,634.854,618.4Z" fill="#fff"/><path d="M648.086,235.036l-17.027,24.509c-.01-4.109-2.325-7.809-4.514-11.286a445.349,445.349,0,0,1-31.329-59.246c9.81,6.8,17.785,15.854,26.33,24.185a231.294,231.294,0,0,0,26.254,22.05l-2.948-1.331"/><path d="M540.952,133.924c19.785,37.066,34.271,75.429,59.463,109.058,2.3,2.662,34.852-7.266,38.13-7.741,13.97-2.023,34.408-7.005,48.273-8.13-28.14-17.233-61.348-33.923-88.357-52.862l-29.682-20.813C562.078,148.737,544.718,140.978,540.952,133.924Z" fill="#03be80"/><path d="M545.813,139.342l83.955,85.2a35.134,35.134,0,0,0,3.466,3.008c1.392,1.093,3.078,2.293,4.654,3.677,1.594,1.4,3.184,4.248,5.116,5.015a4.939,4.939,0,0,0,2.515.085c3.995-.561,6.225-2.5,10.2-3.2-2.391.424-8.165-4.687-10.463-6.245-5.149-3.494-9.851-8.026-14.64-12q-14.572-12.085-28.856-24.512Q573.191,165.517,545.813,139.342Z"/><path d="M711.17,435.443c-1.511-.584-2.431,1.789-1.084,2.57,12.344,7.154,22.845,16.041,30.423,28.294,7.52,12.162,10.955,25.474,12.171,39.618a1.888,1.888,0,0,0,3.773,0C758.655,477.106,738.008,445.8,711.17,435.443Z" fill="#707070"/><path d="M566.316,589.309c-4.4-3.86-12.11-4.2-17.733-4.888a100.443,100.443,0,0,0-21.883-.284c-13.591,1.326-27.664,5.028-39.168,12.594-1,.658-.382,2.555.867,2.057,12.462-4.975,24.818-9.085,38.3-10.057a99.435,99.435,0,0,1,18.533.322,101.131,101.131,0,0,1,10.962,1.866c2.965.678,5.78,1.877,8.836,1.491C566.43,592.234,567.631,590.465,566.316,589.309Z" fill="#707070"/><path d="M637.221,683.974c-4.5-.194-9.459,4.131-13.432,6.073a136.2,136.2,0,0,1-16.474,6.741,148.21,148.21,0,0,1-33.963,7.085c-23.384,2.084-45.336-2.222-67.538-9.176a1.13,1.13,0,0,0-.867,2.056c20.675,10.962,46.132,14.032,69.209,12.235a146.664,146.664,0,0,0,50.274-13.072c4.368-2.011,12.3-4.5,14.441-9.068A1.937,1.937,0,0,0,637.221,683.974Z" fill="#707070"/><path d="M114.86,563.5a70.539,70.539,0,0,0-19.7,30.274c-3.663,10.837-5.99,24.687-1.933,35.729a.931.931,0,0,0,1.819-.246c.35-11.642-.077-22.446,3.759-33.7a72.822,72.822,0,0,1,19.022-29.1C119.79,564.579,116.872,561.731,114.86,563.5Z" fill="#707070"/><path d="M261.261,665.4c-2.884,3.476-4.569,7.9-7.146,11.632A67.5,67.5,0,0,1,243.9,688.665c-7.906,7.172-17.008,11.624-26.787,15.63a1.314,1.314,0,0,0,.7,2.531c10.44-1.543,20.307-7.164,28.263-13.916a70.722,70.722,0,0,0,10.473-11.078c3.141-4.121,7.126-9.338,7.891-14.583C264.672,665.615,262.625,663.758,261.261,665.4Z" fill="#707070"/><path d="M280.591,676.822c-3.4,1.882-5.721,5.536-8.454,8.232a81.682,81.682,0,0,1-10.409,8.7c-1.753,1.233-.132,4.121,1.7,2.914a75.6,75.6,0,0,0,10.9-8.56c2.909-2.792,6.7-6.145,7.653-10.218A.961.961,0,0,0,280.591,676.822Z" fill="#707070"/><path d="M188.228,115.079c-.624-3.071-1.314-6.122-2.151-9.143-.469-1.691-3.391-1.434-3.176.43.332,2.889.789,5.744,1.3,8.606.44,2.459.475,5.469,2.46,7.188a1.115,1.115,0,0,0,1.73-.223C189.513,119.747,188.7,117.4,188.228,115.079Z" fill="#707070"/><path d="M155.575,132.759a4.243,4.243,0,0,0-1.654-1.995c-.791-.557-1.633-1.023-2.378-1.648a16.729,16.729,0,0,1-3.664-4.506c-.852-1.472-3.369-.5-2.806,1.183a14.88,14.88,0,0,0,3.773,6.02,13.359,13.359,0,0,0,2.679,2.09,3.653,3.653,0,0,0,3.434.371A1.051,1.051,0,0,0,155.575,132.759Z" fill="#707070"/><path d="M133.207,157.846c-2.339-2.594-5.659-3.858-8.776-5.3a74.523,74.523,0,0,0-9.581-4.009c-1.148-.347-1.634,1.193-.768,1.82a79.317,79.317,0,0,0,9.957,5.7c2.795,1.461,5.394,2.96,8.571,3.232C133.388,159.353,133.656,158.344,133.207,157.846Z" fill="#707070"/><path d="M113.391,197.609c-1.624-1.574-3.957-1.429-6.114-1.683a70.545,70.545,0,0,0-8.615-.748,1.166,1.166,0,0,0-.309,2.279,70.567,70.567,0,0,0,8.487,1.7c2.16.362,4.334,1.135,6.342.075A1.041,1.041,0,0,0,113.391,197.609Z" fill="#707070"/><path d="M110.354,229.154c-2.843-1.234-6.676-.6-9.692-.409a1.594,1.594,0,0,0,0,3.187c3.016.19,6.849.824,9.692-.41A1.377,1.377,0,0,0,110.354,229.154Z" fill="#707070"/><path d="M237.667,108.061a1.053,1.053,0,0,0-1.532-.623c-1.961,1.28-2.449,3.791-3.187,5.918a71.987,71.987,0,0,0-2.541,8.637c-.292,1.372,1.668,2.378,2.378,1a69.81,69.81,0,0,0,3.289-7.679C236.91,113.081,238.423,110.447,237.667,108.061Z" fill="#707070"/><path d="M287,125.118c-2.078-.626-4.39.568-6.168,1.581a19.37,19.37,0,0,0-5.262,4.546c-1.247,1.506.762,3.631,2.187,2.187a20.6,20.6,0,0,1,4.885-3.636c1.6-.87,3.608-1.261,4.917-2.563A1.278,1.278,0,0,0,287,125.118Z" fill="#707070"/><path d="M301.534,156.726c-1.7,1.347-3.093,2.685-5.244,3.295-1.514.429-1.286,2.953.383,2.832,2.908-.212,6.172-1.892,6.949-4.912A1.261,1.261,0,0,0,301.534,156.726Z" fill="#707070"/><path d="M431.728,560.178c-11.1-.116-22.467,2.206-33.573,2.888q-17.319,1.065-34.689.85c-22.781-.277-45.475-2.323-68.123-4.648-1.827-.187-2.212,2.807-.433,3.2,22.5,4.974,45.542,7.032,68.556,7.38q17.354.262,34.689-.8c11.15-.685,23.466-.749,34.258-3.8A2.59,2.59,0,0,0,431.728,560.178Z" fill="#008cff"/><path d="M573.645,261.331c-6.373-4.858-15.865-7.43-23.323-10.224q-12.548-4.7-25.431-8.426a356.463,356.463,0,0,0-52.062-10.894,348.18,348.18,0,0,0-53.463-3.027c-17.232.376-36.016,1.18-52.625,6.149a.777.777,0,0,0,.205,1.52c17.218-.787,34.234-3.464,51.527-3.772a360.9,360.9,0,0,1,52.584,2.86,351.665,351.665,0,0,1,51.919,10.75q12.45,3.57,24.614,8.055,5.865,2.164,11.651,4.541c4.295,1.765,8.662,4.3,13.23,5.252A1.531,1.531,0,0,0,573.645,261.331Z" fill="#008cff"/><path d="M691.372,306.419c-8.2-7.307-17.55-13.2-25.672-20.6a66.694,66.694,0,0,1-10.341-11.628c-2.989-4.392-4.673-9.2-6.792-14.025-.353-.8-1.62-.371-1.6.434.333,14.7,15.017,26.956,25.537,35.22,12.947,10.17,28.4,20.546,32.912,37.416,2.1,7.867.894,16.206-4.19,22.577-1.249-4.231-4.093-7.854-9.3-10.2-5.56-2.5-12.1-1.359-15.682,3.81-3.2,4.628-3.014,10.784,1.5,14.483,6.626,5.428,14.345,3.857,20.544-.609-.089,7.723-4.543,15-8.238,21.592a1.931,1.931,0,0,0,3.333,1.948c4.312-6.975,9.142-17.62,8.588-26.7A28.593,28.593,0,0,0,709,348.781C713.9,332.6,702.874,316.669,691.372,306.419Zm-.982,56.5c-4.647.977-12.079-.312-12.589-6.277-.489-5.719,5.511-9.479,10.618-8.225,4.771,1.171,8.116,5.275,9.29,9.9.076.3.121.6.182.892A17.692,17.692,0,0,1,690.39,362.916Z" fill="#707070"/><g transform="translate(74.983 228.796)"><path d="M134.8,48.321a11.075,11.075,0,0,1-3.125-8.244q0-10.895,12.9-12.577l10.164-1.353q0-6.141-6.654-6.141a22.705,22.705,0,0,0-12.722,3.984v-8.7a28.624,28.624,0,0,1,6.6-2.194,34.7,34.7,0,0,1,7.622-.95q16.013,0,16.012,15.976V50.5H154.674V45.122h-.146a12.2,12.2,0,0,1-11.15,6.287Q137.93,51.409,134.8,48.321Zm13.143-14.679q-5.628.731-5.63,5.081a4.2,4.2,0,0,0,1.371,3.235,5.263,5.263,0,0,0,3.71,1.262,6.84,6.84,0,0,0,5.3-2.249,8.125,8.125,0,0,0,2.047-5.685V32.765ZM0,50.539.072,0h20.8s15.8-.577,22.241,12.71a20.253,20.253,0,0,0-8.232,7.842A16.185,16.185,0,0,0,19.715,11.1c-3.078.052-8.666,0-8.666,0V39.4h9.619s10.182.693,13.779-12.349C37.7,14.251,49.1,12.367,52.893,12.367c8.7,0,19.163,6.274,19.163,19.671,0,9.445-8.255,18.611-19.326,18.459a18.8,18.8,0,0,1-12.284-4.7,24.956,24.956,0,0,0,5.135-7.583,10.041,10.041,0,1,0-2.643-6.478,10.768,10.768,0,0,0,1.321,4.7s-4.312,14.1-23.592,14.1ZM117.287,50.5l.006-20.02s.561-8.459-4.857-8.459-4.865,8.459-4.865,8.459l.067,20.02H95.023l.006-21.282s.4-7.2-4.906-7.2-4.89,7.2-4.89,7.2L85.226,50.5H72.759l.006-34.639L84.64,11.85v6.828a10.994,10.994,0,0,1,10.389-6.309c8.936,0,10.911,6.309,10.911,6.309a13.513,13.513,0,0,1,11.354-6.309c13.509,0,12.467,13.284,12.467,13.284L129.754,50.5Zm92.893,0v-20.8q0-8.7-6.215-8.7a6.166,6.166,0,0,0-4.936,2.3,8.775,8.775,0,0,0-1.937,5.849V50.5H185.539V13.06h11.553v5.923h.146a13.238,13.238,0,0,1,12.028-6.837q12.43,0,12.429,15.428V50.5Zm-40.677,0V15.833l11.553-3.465V50.5Z" transform="translate(155.063 143.162)" fill="#fff"/><circle cx="7.837" cy="7.837" r="7.837" transform="translate(200.495 166.707)" fill="#00cf6e"/><path d="M69.119-68.833H57.567V-58.55l11.552-3.466Z" transform="translate(267 214.772)" fill="#00cf6e"/><path d="M16.9-11.913v6.1H11.68V5.829a31.454,31.454,0,0,0,.136,4.109,1.6,1.6,0,0,0,.68.952,2.22,2.22,0,0,0,1.306.381,10.2,10.2,0,0,0,3.048-.707L17.5,16.5a15.2,15.2,0,0,1-6.041,1.143,9.42,9.42,0,0,1-3.728-.707,5.476,5.476,0,0,1-2.422-1.8,7.389,7.389,0,0,1-1.088-2.993,41.261,41.261,0,0,1-.218-5.388V-5.817H.469v-6.1H4.006v-5.769l7.674-4.463v10.232ZM18.1,2.128a15.632,15.632,0,0,1,1.878-7.374,12.867,12.867,0,0,1,5.333-5.442,15.866,15.866,0,0,1,7.7-1.878A14.419,14.419,0,0,1,43.735-8.321,14.7,14.7,0,0,1,47.925,2.455a14.927,14.927,0,0,1-4.218,10.857,14.234,14.234,0,0,1-10.64,4.327,16.866,16.866,0,0,1-7.592-1.8,12.287,12.287,0,0,1-5.5-5.279A17.562,17.562,0,0,1,18.1,2.128Zm7.837.381q0,4.3,2.041,6.585a6.686,6.686,0,0,0,10.068,0q2.041-2.286,2.041-6.64a9.487,9.487,0,0,0-2.041-6.531,6.686,6.686,0,0,0-10.068,0Q25.938-1.79,25.938,2.509Zm23.837-.381a15.632,15.632,0,0,1,1.878-7.374,12.867,12.867,0,0,1,5.333-5.442,15.866,15.866,0,0,1,7.7-1.878A14.419,14.419,0,0,1,75.408-8.321,14.7,14.7,0,0,1,79.6,2.455a14.927,14.927,0,0,1-4.218,10.857,14.234,14.234,0,0,1-10.64,4.327,16.866,16.866,0,0,1-7.592-1.8,12.287,12.287,0,0,1-5.5-5.279A17.562,17.562,0,0,1,49.775,2.128Zm7.837.381q0,4.3,2.041,6.585a6.686,6.686,0,0,0,10.068,0q2.041-2.286,2.041-6.64a9.487,9.487,0,0,0-2.041-6.531,6.686,6.686,0,0,0-10.068,0Q57.612-1.79,57.612,2.509ZM83.19,16.986V-22.906h7.674V16.986ZM93.639,8.714l7.674-1.143a5.561,5.561,0,0,0,1.986,3.374,6.821,6.821,0,0,0,4.218,1.143A7.642,7.642,0,0,0,111.98,11a2.426,2.426,0,0,0,.98-2.014,2.1,2.1,0,0,0-.544-1.469,5.715,5.715,0,0,0-2.558-.98q-9.252-2.068-11.7-3.755a7.421,7.421,0,0,1-3.429-6.476,8.015,8.015,0,0,1,2.966-6.313q2.966-2.558,9.17-2.558,5.932,0,8.817,1.932a9.867,9.867,0,0,1,3.973,5.687L112.47-3.586A4.6,4.6,0,0,0,110.7-6.171a6.35,6.35,0,0,0-3.674-.9,8.612,8.612,0,0,0-4.354.816,1.834,1.834,0,0,0-.871,1.578,1.621,1.621,0,0,0,.762,1.361q1.034.762,7.157,2.15t8.517,3.4a7.151,7.151,0,0,1,2.395,5.714,8.729,8.729,0,0,1-3.32,6.83q-3.32,2.857-9.8,2.857-5.932,0-9.361-2.395A11.178,11.178,0,0,1,93.639,8.714Z" transform="translate(380.221 175.844)" fill="#16e483"/></g></g></svg>