<svg xmlns="http://www.w3.org/2000/svg" width="162" height="162" viewBox="0 0 162 162">
  <path id="Subtraction_1" data-name="Subtraction 1" d="M100.5,169a81,81,0,0,1,0-162,6.106,6.106,0,0,1,0,12.211A68.789,68.789,0,1,0,169.289,88,6.106,6.106,0,1,1,181.5,88,81.092,81.092,0,0,1,100.5,169Zm24.042-49.958a6.957,6.957,0,0,1-4.95-2.05L100.5,97.9,81.409,116.992a7,7,0,1,1-9.9-9.9L90.6,88,71.509,68.909a7,7,0,0,1,9.9-9.9L100.5,78.1l19.092-19.092a7,7,0,0,1,9.9,9.9L110.4,88l19.092,19.092a7,7,0,0,1-4.95,11.95Z" transform="translate(-19.5 -7)" fill="#b70932"/>
</svg>
