<svg xmlns="http://www.w3.org/2000/svg" width="162" height="162" viewBox="0 0 162 162">
  <path id="Subtraction_1" data-name="Subtraction 1" d="M207,216a81,81,0,0,1,0-162,6.106,6.106,0,1,1,0,12.211A68.789,68.789,0,1,0,275.789,135,6.106,6.106,0,1,1,288,135,81.092,81.092,0,0,1,207,216Zm-5.7-51.9c-.043,0-.086,0-.13,0a6.123,6.123,0,0,1-4.361-1.968l-30.731-33.375a6.106,6.106,0,0,1,8.984-8.271l26.427,28.7,73.246-73.053a6.1,6.1,0,1,1,8.621,8.645l-77.744,77.54A6.151,6.151,0,0,1,201.3,164.1Z" transform="translate(-126 -54)" fill="#00c166"/>
</svg>
