<svg xmlns="http://www.w3.org/2000/svg" width="151.959" height="125.792" viewBox="0 0 151.959 125.792">
  <g id="Calendar" transform="translate(-99.312 -115.245)">
    <g id="Group_79" data-name="Group 79" transform="translate(99.312 115.245)">
      <g id="Group_68" data-name="Group 68" transform="translate(43.739 0)">
        <path id="Path_2070" data-name="Path 2070" d="M241.742,289.324a4.626,4.626,0,0,0,4.626,4.626h91.695a4.626,4.626,0,0,0,4.626-4.626v-82.76H241.742Z" transform="translate(-234.481 -168.658)" fill="#787878"/>
        <path id="Path_2071" data-name="Path 2071" d="M338.093,142.886H246.4a4.626,4.626,0,0,0-4.626,4.626v21.619H342.72V147.512A4.626,4.626,0,0,0,338.093,142.886Z" transform="translate(-234.5 -131.199)" fill="#787878"/>
        <path id="Path_2072" data-name="Path 2072" d="M224.108,289.324a4.626,4.626,0,0,0,4.626,4.626h91.695a4.626,4.626,0,0,0,4.626-4.626v-82.76H224.108Z" transform="translate(-224.108 -168.658)" fill="#fff" stroke="#787878" stroke-width="1"/>
        <path id="Path_2073" data-name="Path 2073" d="M320.429,142.824H228.734a4.626,4.626,0,0,0-4.626,4.626v21.619H325.055V147.45A4.626,4.626,0,0,0,320.429,142.824Z" transform="translate(-224.108 -131.163)" fill="#f3f3f3" stroke="#787878" stroke-width="1"/>
        <circle id="Ellipse_13" data-name="Ellipse 13" cx="5.311" cy="5.311" r="5.311" transform="translate(22.729 19.392)"/>
        <path id="Path_2074" data-name="Path 2074" d="M278.858,138.1h0a2.762,2.762,0,0,1-2.762-2.762V123.792a2.836,2.836,0,0,1,2.212-2.818,2.767,2.767,0,0,1,3.313,2.709v3.5H286.3v-3.242a7.615,7.615,0,0,0-6.93-7.685,7.447,7.447,0,0,0-7.948,7.422V135.1a7.441,7.441,0,0,0,7.954,7.662c2.944-.2,2.7-4.659-.251-4.659Z" transform="translate(-251.939 -116.245)" fill="#fff"/>
        <path id="Path_2120" data-name="Path 2120" d="M5.311,0A5.311,5.311,0,1,1,0,5.311,5.311,5.311,0,0,1,5.311,0Z" transform="translate(65.082 19.392)"/>
        <path id="Path_2075" data-name="Path 2075" d="M381.721,138.1h0a2.762,2.762,0,0,1-2.762-2.762V123.792a2.836,2.836,0,0,1,2.212-2.818,2.767,2.767,0,0,1,3.313,2.709v3.5h4.676v-3.242a7.615,7.615,0,0,0-6.93-7.685,7.447,7.447,0,0,0-7.948,7.422V135.1a7.44,7.44,0,0,0,7.954,7.662c2.945-.2,2.7-4.659-.251-4.659Z" transform="translate(-312.449 -116.245)" fill="#fff"/>
        <rect id="Rectangle_40" data-name="Rectangle 40" width="15.1" height="15.1" transform="translate(15.165 50.425)" fill="#c6c6c6"/>
        <rect id="Rectangle_41" data-name="Rectangle 41" width="15.1" height="15.1" transform="translate(15.165 72.654)" fill="#c6c6c6"/>
        <rect id="Rectangle_42" data-name="Rectangle 42" width="15.1" height="15.1" transform="translate(15.165 94.884)" fill="#c6c6c6"/>
        <rect id="Rectangle_43" data-name="Rectangle 43" width="15.1" height="15.1" transform="translate(40.784 50.425)" fill="#008cff"/>
        <rect id="Rectangle_44" data-name="Rectangle 44" width="15.1" height="15.1" transform="translate(40.784 72.654)" fill="#e6e6e6"/>
        <rect id="Rectangle_45" data-name="Rectangle 45" width="15.1" height="15.1" transform="translate(40.784 94.884)" fill="#e6e6e6"/>
        <rect id="Rectangle_46" data-name="Rectangle 46" width="15.1" height="15.1" transform="translate(66.402 50.425)" fill="#a8a8a8"/>
        <rect id="Rectangle_47" data-name="Rectangle 47" width="15.1" height="15.1" transform="translate(66.402 72.654)" fill="#c6c6c6"/>
        <rect id="Rectangle_48" data-name="Rectangle 48" width="15.1" height="15.1" transform="translate(66.402 94.884)" fill="#e6e6e6"/>
      </g>
      <g id="Group_78" data-name="Group 78" transform="translate(0 50.723)">
        <rect id="Rectangle_49" data-name="Rectangle 49" width="10.192" height="6.712" transform="translate(29.216 2.353)" fill="#006846"/>
        <rect id="Rectangle_50" data-name="Rectangle 50" width="18.829" height="4.093" transform="translate(24.898)" fill="#03be80"/>
        <circle id="Ellipse_15" data-name="Ellipse 15" cx="33.949" cy="33.949" r="33.949" transform="translate(68.141 6.671) rotate(90)" fill="#03be80"/>
        <circle id="Ellipse_16" data-name="Ellipse 16" cx="27.882" cy="27.882" r="27.882" transform="matrix(0.227, -0.974, 0.974, 0.227, 0, 61.46)" fill="#fff"/>
        <path id="Path_2076" data-name="Path 2076" d="M160,296.2a.7.7,0,0,1-.5-.205l-1.165-1.164a.7.7,0,1,1,.992-.992l1.164,1.164a.7.7,0,0,1-.5,1.2Z" transform="translate(-141.562 -270.603)" fill="#a8a8a8"/>
        <path id="Path_2077" data-name="Path 2077" d="M240.009,376.209a.7.7,0,0,1-.5-.205l-1.164-1.165a.7.7,0,1,1,.992-.992l1.164,1.165a.7.7,0,0,1-.5,1.2Z" transform="translate(-188.625 -317.666)" fill="#a8a8a8"/>
        <path id="Path_2078" data-name="Path 2078" d="M158.84,376.209a.7.7,0,0,1-.5-1.2l1.165-1.165a.7.7,0,1,1,.992.992L159.336,376A.7.7,0,0,1,158.84,376.209Z" transform="translate(-141.562 -317.666)" fill="#a8a8a8"/>
        <path id="Path_2079" data-name="Path 2079" d="M238.845,296.2a.7.7,0,0,1-.5-1.2l1.164-1.164a.7.7,0,1,1,.992.992L239.34,296A.7.7,0,0,1,238.845,296.2Z" transform="translate(-188.625 -270.603)" fill="#a8a8a8"/>
        <circle id="Ellipse_17" data-name="Ellipse 17" cx="1.605" cy="1.605" r="1.605" transform="translate(32.703 15.671)" fill="#787878"/>
        <circle id="Ellipse_18" data-name="Ellipse 18" cx="1.605" cy="1.605" r="1.605" transform="translate(32.703 62.373)" fill="#787878"/>
        <path id="Path_2080" data-name="Path 2080" d="M142.2,332.468a1.6,1.6,0,1,1-1.605,1.6A1.6,1.6,0,0,1,142.2,332.468Z" transform="translate(-131.239 -293.445)" fill="#787878"/>
        <path id="Path_2081" data-name="Path 2081" d="M255.621,332.468a1.6,1.6,0,1,1-1.605,1.6A1.6,1.6,0,0,1,255.621,332.468Z" transform="translate(-197.962 -293.445)" fill="#787878"/>
        <path id="Path_2082" data-name="Path 2082" d="M208.313,301.095l-11.459,13.431a1.8,1.8,0,1,0,3,1.809l8.857-14.955A.246.246,0,0,0,208.313,301.095Z" transform="translate(-164.03 -274.938)" fill="#787878"/>
      </g>
    </g>
  </g>
</svg>
