<svg xmlns="http://www.w3.org/2000/svg" width="18.34" height="22" viewBox="0 0 18.34 22"><g transform="translate(-35.966)"><g transform="translate(35.966)"><g transform="translate(0)"><path d="M110.987,93.2a5.666,5.666,0,0,0-3.745,9.911,4.254,4.254,0,0,1,.794,2.829.337.337,0,0,0,.1.265.375.375,0,0,0,.244.1h5.19a.337.337,0,0,0,.244-.1.387.387,0,0,0,.1-.265,4.382,4.382,0,0,1,.794-2.829l.061-.061a5.649,5.649,0,0,0-3.785-9.85Zm3.256,9.382c-.02.02-.061.061-.061.081a4.752,4.752,0,0,0-.957,2.931h-4.5a4.729,4.729,0,0,0-1.018-3.012,4.956,4.956,0,1,1,6.533,0Z" transform="translate(-101.8 -88.458)" fill="#231f20"/><path d="M209.675,121.6a.346.346,0,1,0,0,.692,3.7,3.7,0,0,1,3.7,3.7.346.346,0,1,0,.692,0A4.378,4.378,0,0,0,209.675,121.6Z" transform="translate(-200.508 -115.413)" fill="#231f20"/><path d="M160.3,358.4h-4.518a.855.855,0,1,0,0,1.71h4.5a.878.878,0,0,0,.875-.855A.86.86,0,0,0,160.3,358.4Zm0,1h-4.518a.161.161,0,0,1-.163-.163.15.15,0,0,1,.163-.163h4.5a.161.161,0,0,1,.163.163A.145.145,0,0,1,160.3,359.4Z" transform="translate(-148.876 -340.165)" fill="#231f20"/><path d="M172.159,398.8h-3.175a.855.855,0,1,0,0,1.71h3.175a.86.86,0,0,0,.855-.855A.847.847,0,0,0,172.159,398.8Zm0,1h-3.175a.161.161,0,0,1-.163-.163.15.15,0,0,1,.163-.163h3.175a.163.163,0,0,1,0,.326Z" transform="translate(-161.405 -378.51)" fill="#231f20"/><path d="M209.675,3.053a.343.343,0,0,0,.346-.346V.346a.346.346,0,0,0-.692,0V2.707A.357.357,0,0,0,209.675,3.053Z" transform="translate(-200.508)" fill="#231f20"/><path d="M294.975,33.179a.328.328,0,0,0-.468.081l-1.3,1.954a.335.335,0,0,0,.081.488.328.328,0,0,0,.183.061.325.325,0,0,0,.285-.163l1.3-1.954A.315.315,0,0,0,294.975,33.179Z" transform="translate(-280.049 -31.428)" fill="#231f20"/><path d="M104.661,33.59a.328.328,0,0,0,.183-.061.357.357,0,0,0,.1-.488l-1.262-1.974a.353.353,0,0,0-.59.387l1.262,1.974A.338.338,0,0,0,104.661,33.59Z" transform="translate(-99.626 -29.337)" fill="#231f20"/><path d="M38.538,104.45l-2.056-1.119a.358.358,0,0,0-.468.142.325.325,0,0,0,.142.468l2.056,1.119a.479.479,0,0,0,.163.041.336.336,0,0,0,.305-.183A.358.358,0,0,0,38.538,104.45Z" transform="translate(-35.966 -98.039)" fill="#231f20"/><path d="M344.946,103.473a.358.358,0,0,0-.468-.142L342.4,104.45a.358.358,0,0,0-.142.468.336.336,0,0,0,.305.183.383.383,0,0,0,.163-.041l2.076-1.119A.358.358,0,0,0,344.946,103.473Z" transform="translate(-326.641 -98.039)" fill="#231f20"/></g></g></g></svg>