<svg xmlns="http://www.w3.org/2000/svg" width="163.81" height="29.52" viewBox="0 0 163.81 29.52">
  <g id="Group_16" data-name="Group 16" transform="translate(-155.063 -143.162)">
    <path id="Union_2" data-name="Union 2" d="M131.133,26.633q-2.876-2.886-2.876-8.05a11.5,11.5,0,0,1,3.107-8.481,10.349,10.349,0,0,1,7.641-3.128,9.4,9.4,0,0,1,7.274,2.792,10.753,10.753,0,0,1,2.571,7.578v2.792H134.828q.336,4.681,5.9,4.681a11.517,11.517,0,0,0,6.235-1.68v4.786a16.378,16.378,0,0,1-7.746,1.6Q134.009,29.52,131.133,26.633Zm5.07-13.865a6,6,0,0,0-1.417,3.3H142.7q0-4.618-3.736-4.618A3.567,3.567,0,0,0,136.2,12.768Zm-58.8,14.978a6.356,6.356,0,0,1-1.795-4.734q0-6.256,7.41-7.221l5.836-.777q0-3.527-3.821-3.527a13.042,13.042,0,0,0-7.305,2.288v-5A16.433,16.433,0,0,1,81.52,7.52,19.909,19.909,0,0,1,85.9,6.974q9.195,0,9.195,9.174V28.995H88.815V25.909h-.084a7.006,7.006,0,0,1-6.4,3.611A6.7,6.7,0,0,1,77.405,27.746Zm7.547-8.429q-3.233.42-3.233,2.918a2.411,2.411,0,0,0,.787,1.858,3.024,3.024,0,0,0,2.131.724,3.927,3.927,0,0,0,3.044-1.291,4.663,4.663,0,0,0,1.175-3.264V18.813ZM0,29.02.041,0H11.984S21.058-.33,24.755,7.3a11.629,11.629,0,0,0-4.727,4.5A9.294,9.294,0,0,0,11.32,6.371c-1.767.03-4.976,0-4.976,0V22.626h5.523s5.847.4,7.912-7.091A10.947,10.947,0,1,1,30.278,29a10.8,10.8,0,0,1-7.054-2.7,14.328,14.328,0,0,0,2.948-4.354,5.766,5.766,0,1,0-1.518-3.719,6.182,6.182,0,0,0,.759,2.7s-2.476,8.1-13.547,8.1ZM67.347,29l0-11.495s.323-4.858-2.788-4.858S61.768,17.5,61.768,17.5L61.807,29H54.563l0-12.219s.228-4.134-2.817-4.134-2.808,4.134-2.808,4.134l0,12.219H41.779l0-19.89L48.6,6.8v3.92A6.314,6.314,0,0,1,54.566,7.1c5.131,0,6.264,3.622,6.264,3.622A7.76,7.76,0,0,1,67.35,7.1c7.757,0,7.159,7.628,7.159,7.628l0,14.265Zm82.441,0V7.5h6.634v3.989h.084q1.575-4.366,5.668-4.367a4.271,4.271,0,0,1,1.638.252v6.108a5.755,5.755,0,0,0-2.792-.651,4.023,4.023,0,0,0-3.38,1.585,6.913,6.913,0,0,0-1.217,4.314V28.995Zm-29.1,0V17.05q0-5-3.569-5a3.54,3.54,0,0,0-2.834,1.322,5.037,5.037,0,0,0-1.113,3.359V28.995h-6.633V7.5h6.633v3.4h.084a7.6,7.6,0,0,1,6.906-3.926q7.137,0,7.137,8.859V28.995Zm-23.357,0V9.091L103.964,7.1V28.995Z" transform="translate(155.063 143.162)" fill="#fff"/>
    <circle id="Ellipse_6" data-name="Ellipse 6" cx="4.5" cy="4.5" r="4.5" transform="translate(181.15 156.682)" fill="#00cf6e"/>
    <path id="Path_1975" data-name="Path 1975" d="M64.2-68.833H57.567v5.9l6.633-1.99Z" transform="translate(194.826 213.59)" fill="#00cf6e"/>
  </g>
</svg>
