<svg xmlns="http://www.w3.org/2000/svg" width="597.303" height="536.818" viewBox="0 0 597.303 536.818">
  <path id="blob_1_" data-name="blob (1)" d="M387.233-49.224c41.628,29.587,61.582,89.793,82.912,150.343,21.33,60.894,44.38,122.476,35.435,180.618-9.289,58.486-50.229,113.531-103.21,145.526s-118.348,40.6-177.177,32-111.123-34.747-165.136-66.4S-49,324.053-74.116,271.072c-24.77-52.637-19.266-120.756,10.665-171.329C-33.176,49.514,21.526,17.175,72.443-9.316,123.7-35.806,171.524-56.793,226.914-67.458,282.3-78.467,345.605-79.155,387.233-49.224Z" transform="translate(89.742 74.425)" fill="#008cff" opacity="0.5"/>
</svg>
