<svg xmlns="http://www.w3.org/2000/svg" width="185.17" height="128.962" viewBox="0 0 185.17 128.962">
  <g id="Search_Web" data-name="Search Web" transform="translate(-151.654 -104.769)">
    <path id="Path_1976" data-name="Path 1976" d="M291.45,298.247H328.6c.575,14.78,17.5,18.253,17.5,18.253h-38.06S292.025,313.027,291.45,298.247Z" transform="translate(-61.091 -82.77)" fill="#787878"/>
    <path id="Path_1977" data-name="Path 1977" d="M298.042,298.247h45.9c.575,14.349,17.5,17.721,17.5,17.721H318.11S298.617,312.6,298.042,298.247Z" transform="translate(-63.918 -82.77)" fill="#fff" stroke="#707070" stroke-width="1"/>
    <path id="Path_1978" data-name="Path 1978" d="M204.35,218.49H349.193c2.252,0,6.722-1.826,6.61-4.079l-7.987-105.062a4.335,4.335,0,0,0-4.283-4.079H200.156c-2.253,0-5.411,2.461-5.3,4.714l5.21,104.427A4.335,4.335,0,0,0,204.35,218.49Z" transform="translate(-19.66)" fill="#787878"/>
    <path id="Path_1979" data-name="Path 1979" d="M207.848,217.854H353.6a3.843,3.843,0,0,0,3.876-4.079l-5.21-104.427a4.335,4.335,0,0,0-4.283-4.079H202.232a3.843,3.843,0,0,0-3.875,4.079l5.21,104.427A4.334,4.334,0,0,0,207.848,217.854Z" transform="translate(-21.16)" fill="#f3f3f3" stroke="#707070" stroke-width="1"/>
    <path id="Path_1980" data-name="Path 1980" d="M211.04,286.1h143.5a3.784,3.784,0,0,0,3.816-4.016l-.845-16.938H205.979l.845,16.938A4.267,4.267,0,0,0,211.04,286.1Z" transform="translate(-23.214 -69.46)" fill="#fff"/>
    <path id="Path_1981" data-name="Path 1981" d="M355.093,195.652l-4.042-81.015H207.838l4.042,81.015Z" transform="translate(-25.229 -4.018)" fill="#fff" stroke="#e4e4e4" stroke-width="1"/>
    <path id="Path_1982" data-name="Path 1982" d="M162.5,260.935s1.4-17.369-1.813-21.357c-2.72-3.375-.836-8.417-.193-9.887a.842.842,0,0,0-.059-.793c-.682-1.076-2.452-4.26-1.477-7a9.121,9.121,0,0,1,3.713-4.534.845.845,0,0,0,.382-.853c-.409-2.476-1.377-12.233,8.255-14.462a.846.846,0,0,1,.914.4,16.97,16.97,0,0,1,2.124,6.674,12.774,12.774,0,0,1-2.034,7.9.847.847,0,0,0,.147,1.087,5.581,5.581,0,0,1,1.951,5.773,17.555,17.555,0,0,1-2.275,5.059.845.845,0,0,0-.116.74,14.369,14.369,0,0,1-.135,9.029c-1.822,4.576-8.735,22.618-8.271,31.034A64.5,64.5,0,0,1,162.5,260.935Z" transform="translate(14.121 -41.499)" fill="#319188"/>
    <path id="Path_1983" data-name="Path 1983" d="M173,209.394s-5.132,13.4-7.586,52.758" transform="translate(11.231 -44.66)" fill="none" stroke="#21295b" stroke-linecap="round" stroke-linejoin="round" stroke-width="0.5"/>
    <path id="Path_1984" data-name="Path 1984" d="M155.914,254.817s-1.159-14,1.557-18.248c2.3-3.6-.189-8.457-1-9.857a.842.842,0,0,1-.031-.794c.551-1.135,1.921-4.449.622-7.089a9.577,9.577,0,0,0-4.244-4.191.857.857,0,0,1-.478-.8c.11-2.476-.087-12.289-9.942-13.683a.844.844,0,0,0-.883.5,16.568,16.568,0,0,0-1.3,6.8,13.168,13.168,0,0,0,2.981,7.693.847.847,0,0,1-.031,1.1,5.438,5.438,0,0,0-1.234,5.9,18.252,18.252,0,0,0,2.883,4.847.843.843,0,0,1,.2.709,14.445,14.445,0,0,0,1.222,8.975c2.365,4.394,7.181,20.915,7.733,29.327A25.488,25.488,0,0,0,155.914,254.817Z" transform="translate(22.04 -40.693)" fill="#4fae86"/>
    <path id="Path_1985" data-name="Path 1985" d="M138.764,238.531c-5.956-9.333-13.647-11.154-16.1-11.5a.848.848,0,0,0-.962.727,5.844,5.844,0,0,0,2.683,5.648l2.929,2.1a.852.852,0,0,1,.1,1.294c-1,1.033-2.175,3.228,1.593,6.146,3.448,2.671,5.413,4.389,6.368,5.268a.85.85,0,0,1-.023,1.271c-1.081.943-2.652,2.976-.011,5.432,3.662,3.405,9.879,17.39,10.586,23.494C145.923,278.4,145.949,249.789,138.764,238.531Z" transform="translate(30 -52.219)" fill="#6ce08b"/>
    <path id="Path_1986" data-name="Path 1986" d="M173.973,225.042c5.956-9.334,13.648-11.154,16.1-11.5a.848.848,0,0,1,.962.727,5.842,5.842,0,0,1-2.683,5.648l-2.929,2.1a.853.853,0,0,0-.1,1.294c1,1.033,2.174,3.227-1.593,6.146-3.448,2.671-5.412,4.389-6.368,5.268a.851.851,0,0,0,.023,1.272c1.081.942,2.652,2.976.011,5.432-3.662,3.405-9.879,17.39-10.586,23.494C166.814,264.913,166.788,236.3,173.973,225.042Z" transform="translate(10.631 -46.434)" fill="#6ce08b"/>
    <path id="Path_1987" data-name="Path 1987" d="M165.842,269.13c3.6-8.529,4.912-15.515,9.757-23.665,2.867-4.823,6.149-14.144,15.83-19.683a.861.861,0,0,1,1.284.777c-.081,2.678-.54,8.288-2.919,10.71-1.267,1.29-2.041,2.048-2.515,2.494a.85.85,0,0,0-.015,1.226c1,1.006,2.3,3.243-1.377,6.313-3.348,2.794-5.361,4.383-6.348,5.144a.852.852,0,0,0-.14,1.211c.832,1.043,1.908,3.2-1,5.31-5.973,4.339-11.026,11.384-14.284,18.712Z" transform="translate(11.787 -51.64)" fill="#4fae86"/>
    <path id="Path_1988" data-name="Path 1988" d="M157.24,267.571c1.924-35.707-10.883-60.783-10.883-60.783" transform="translate(19.405 -43.542)" fill="none" stroke="#21295b" stroke-linecap="round" stroke-linejoin="round" stroke-width="0.5"/>
    <path id="Path_1989" data-name="Path 1989" d="M191.172,231.513s-20.559,25.629-25.089,46" transform="translate(10.944 -54.147)" fill="none" stroke="#21295b" stroke-linecap="round" stroke-linejoin="round" stroke-width="0.5"/>
    <path id="Path_1990" data-name="Path 1990" d="M163.227,312.083h-11a4.859,4.859,0,0,1-4.815-4.214l-2.466-18.433h25.564l-2.466,18.433A4.859,4.859,0,0,1,163.227,312.083Z" transform="translate(20.01 -78.991)" fill="none" stroke="#707070" stroke-linecap="round" stroke-linejoin="round" stroke-width="0.5"/>
    <path id="Path_1991" data-name="Path 1991" d="M147.979,312.117l.733,5.479a4.859,4.859,0,0,0,4.815,4.215h11a4.859,4.859,0,0,0,4.816-4.215l.733-5.479Z" transform="translate(18.709 -88.719)" fill="#707070"/>
    <rect id="Rectangle_12" data-name="Rectangle 12" width="28.901" height="4.247" transform="translate(163.332 206.031)" stroke-width="0.5" stroke="#707070" stroke-linecap="round" stroke-linejoin="round" fill="none"/>
    <rect id="Rectangle_13" data-name="Rectangle 13" width="97.701" height="14.932" rx="3.378" transform="translate(204.533 131.801)" fill="none" stroke="#4c4c4c" stroke-miterlimit="10" stroke-width="1"/>
    <path id="Path_2005" data-name="Path 2005" d="M448.141,200.176l-1.947,1.621-4.84-5.882,1.947-1.621Z" transform="translate(-131.474 -39.401)" fill="#133a50"/>
    <path id="Path_2006" data-name="Path 2006" d="M462.293,217.605l-1.87,1.557a.834.834,0,0,1-1.174-.107l-11.725-14.27a.833.833,0,0,1,.107-1.174l1.871-1.557a.833.833,0,0,1,1.173.107l11.726,14.27A.833.833,0,0,1,462.293,217.605Z" transform="translate(-134.038 -42.647)" fill="#008cff"/>
    <path id="Path_2007" data-name="Path 2007" d="M427.974,153.166c-5.624-8.461-14.422-12.5-19.651-9.026s-4.91,13.153.713,21.614,14.422,12.5,19.651,9.026S433.6,161.627,427.974,153.166Zm.232,19.309a5.113,5.113,0,0,1-1.312.6c-4.3,1.352-10.919-2.412-15.309-9.017s-5.3-14.167-2.387-17.606a5.119,5.119,0,0,1,1.063-.977c4.146-2.756,11.757,1.1,16.621,8.416S432.352,169.719,428.206,172.475Z" transform="translate(-115.71 -17.355)" fill="#008cff"/>
    <path id="Path_2008" data-name="Path 2008" d="M430.335,155.161c-4.864-7.317-12.476-11.171-16.621-8.416a5.12,5.12,0,0,0-1.063.977c4.3-1.352,10.919,2.412,15.309,9.017s5.3,14.167,2.387,17.606a5.111,5.111,0,0,0,1.312-.6C435.8,170.989,435.2,162.479,430.335,155.161Z" transform="translate(-119.163 -18.624)" fill="#133a50"/>
    <path id="Path_2009" data-name="Path 2009" d="M407.07,166.69c-5.624-8.461-5.943-18.137-.713-21.614l-2.617,1.74c-5.229,3.476-4.91,13.152.713,21.613s14.422,12.5,19.651,9.026l2.617-1.74C421.492,179.191,412.694,175.15,407.07,166.69Z" transform="translate(-113.744 -18.291)" fill="#133a50"/>
    <rect id="Rectangle_14" data-name="Rectangle 14" width="33.137" height="2.185" transform="translate(209.352 154.839)" fill="#a8a8a8"/>
    <rect id="Rectangle_15" data-name="Rectangle 15" width="2.206" height="2.185" transform="translate(204.506 154.839)" fill="#03be80"/>
    <rect id="Rectangle_16" data-name="Rectangle 16" width="2.206" height="2.185" transform="translate(204.506 159.468)" fill="#03be80"/>
    <rect id="Rectangle_17" data-name="Rectangle 17" width="2.206" height="2.185" transform="translate(204.506 164.098)" fill="#03be80"/>
    <rect id="Rectangle_18" data-name="Rectangle 18" width="28.039" height="2.185" transform="translate(209.352 159.468)" fill="#a8a8a8"/>
    <rect id="Rectangle_19" data-name="Rectangle 19" width="41.149" height="2.185" transform="translate(209.352 164.098)" fill="#a8a8a8"/>
    <rect id="Rectangle_20" data-name="Rectangle 20" width="37.507" height="2.185" transform="translate(209.352 168.727)" fill="#a8a8a8"/>
    <rect id="Rectangle_21" data-name="Rectangle 21" width="15.809" height="1.092" transform="translate(225.031 178.517)" fill="#03be80"/>
    <rect id="Rectangle_22" data-name="Rectangle 22" width="26.279" height="5.276" transform="translate(241.8 119.9)" fill="#008cff"/>
    <rect id="Rectangle_23" data-name="Rectangle 23" width="10.56" height="2.185" transform="translate(272.266 177.428)" fill="#03be80"/>
    <path id="Path_2119" data-name="Path 2119" d="M0,0H26.219V2.185H0Z" transform="translate(288.289 177.428)" fill="#03be80"/>
  </g>
</svg>
